Coordinates
version=1
nRows=21
nColumns=28
inDegrees=yes

Units are S.I. units (second, meters, Newtons, ...)
Angles are in degrees.

endheader
time	pelvis_tilt	pelvis_list	pelvis_rotation	pelvis_tx	pelvis_ty	pelvis_tz	hip_flexion_r	hip_adduction_r	hip_rotation_r	knee_angle_r	ankle_angle_r	subtalar_angle_r	mtp_angle_r	hip_flexion_l	hip_adduction_l	hip_rotation_l	knee_angle_l	socket_flexion	socket_adduction	socket_rotation	socket_tx	socket_ty	socket_tz	foot_flex	lumbar_extension	lumbar_bending	lumbar_rotation
      0.63333333	     -2.65714728	     -3.52765807	      8.78522989	     -0.03779674	      0.98408559	      0.29125456	     27.75306313	      2.58152321	     -8.22775968	     -6.81961546	     16.83742744	    -18.26972805	    -14.63431456	    -18.98309000	     -5.76527677	      0.76169261	     -5.04145094	      0.00000000	      0.00000000	      0.00000000	      0.00000000	      0.00000000	      0.00000000	      7.57933487	     -7.37485361	      3.76653202	     -6.74386251
      0.63750000	     -2.59235666	     -3.74244297	      8.83523262	     -0.03120365	      0.98314855	      0.29138256	     27.94957415	      2.84914624	     -8.03793816	     -7.70792804	     16.61648308	    -18.36969462	    -14.60177878	    -19.25082989	     -6.05774369	      0.68059361	     -5.34243535	      0.00000000	      0.00000000	      0.00000000	      0.00000000	      0.00000000	      0.00000000	      7.48841970	     -7.35216011	      4.13515161	     -6.80806305
      0.64166667	     -2.53375888	     -3.90233892	      8.84089923	     -0.02470849	      0.98220770	      0.29161585	     28.18565445	      3.08057199	     -7.82299682	     -8.66009881	     16.28391787	    -18.42596829	    -14.56683316	    -19.50893843	     -6.27664196	      0.61715095	     -5.65413795	      0.00000000	      0.00000000	      0.00000000	      0.00000000	      0.00000000	      0.00000000	      7.42496055	     -7.35333474	      4.42504179	     -6.85560125
      0.64583333	     -2.56458982	     -4.02333521	      8.67019791	     -0.01804424	      0.98104280	      0.29217653	     28.55531660	      3.33276986	     -7.46967815	     -9.67545755	     14.77781063	    -18.99159678	    -10.40742337	    -19.70252110	     -6.39462577	      0.32274098	     -6.01616290	      0.00000000	      0.00000000	      0.00000000	      0.00000000	      0.00000000	      0.00000000	      7.32913938	     -7.24307233	      4.62199800	     -6.67371522
      0.65000000	     -2.49013603	     -4.20008341	      8.63864937	     -0.01145811	      0.98016757	      0.29250319	     28.80626986	      3.58789531	     -7.31694930	    -10.73864573	     14.40968589	    -19.01753948	    -10.39350762	    -19.94816406	     -6.62072078	      0.15785314	     -6.40116291	      0.00000000	      0.00000000	      0.00000000	      0.00000000	      0.00000000	      0.00000000	      7.18411932	     -7.24288409	      4.93598936	     -6.74515779
      0.65416667	     -2.42955371	     -4.36490360	      8.73456152	     -0.00499962	      0.97943408	      0.29279230	     28.93524454	      3.81253889	     -7.00930691	    -11.53974661	     14.15943569	    -18.96880115	    -10.38829931	    -20.08398940	     -6.88742695	      0.24174228	     -6.89398878	      0.00000000	      0.00000000	      0.00000000	      0.00000000	      0.00000000	      0.00000000	      6.99654711	     -7.25002434	      5.20400809	     -6.74470751
      0.65833333	     -2.36707610	     -4.55711078	      8.47770629	      0.00177743	      0.97846425	      0.29342636	     29.32679651	      4.15510291	     -6.95323618	    -12.85864830	     13.59428400	    -19.05523499	    -10.27702660	    -20.36891805	     -7.04627135	     -0.18270485	     -7.28582905	      0.00000000	      0.00000000	      0.00000000	      0.00000000	      0.00000000	      0.00000000	      6.86645054	     -7.22169053	      5.53979549	     -6.76332897
      0.66250000	     -2.30484874	     -4.74054107	      8.49677216	      0.00824725	      0.97780473	      0.29385970	     29.48479917	      4.42689240	     -6.66988718	    -13.72891473	     13.30350193	    -19.02060538	    -10.22598769	    -20.47544870	     -7.30605345	     -0.15868835	     -7.85786746	      0.00000000	      0.00000000	      0.00000000	      0.00000000	      0.00000000	      0.00000000	      6.63146683	     -7.23976518	      5.82923512	     -6.73410784
      0.66666667	     -2.47167310	     -4.88404562	      7.98388946	      0.01517235	      0.97651015	      0.29503660	     30.07488198	      4.84968156	     -6.13081282	    -14.98568593	     12.13065010	    -19.57352700	     -7.73522480	    -20.54119115	     -7.31070968	     -0.83559918	     -8.30787162	      0.00000000	      0.00000000	      0.00000000	      0.00000000	      0.00000000	      0.00000000	      6.41869748	     -6.97360388	      5.94258882	     -5.94416820
      0.67083333	     -2.36796318	     -5.11242089	      7.94385090	      0.02186993	      0.97591385	      0.29551814	     30.24189331	      5.16599590	     -6.08073526	    -15.99386802	     11.68065323	    -19.58318641	     -7.64781766	    -20.69564209	     -7.59511863	     -0.96461383	     -8.90920940	      0.00000000	      0.00000000	      0.00000000	      0.00000000	      0.00000000	      0.00000000	      6.17848564	     -7.00012378	      6.30565555	     -6.11520048
      0.67500000	     -2.27033779	     -5.35847562	      7.85066618	      0.02860772	      0.97536442	      0.29603973	     30.40249959	      5.51406863	     -6.01420386	    -16.98328027	     11.24753706	    -19.59696579	     -7.49533599	    -20.83040792	     -7.87392043	     -1.16941305	     -9.54909133	      0.00000000	      0.00000000	      0.00000000	      0.00000000	      0.00000000	      0.00000000	      5.89179138	     -7.01366995	      6.68367610	     -6.17528423
      0.67916667	     -2.18019383	     -5.56604523	      7.85476090	      0.03521960	      0.97496325	      0.29655150	     30.47445753	      5.81547607	     -5.81531786	    -17.79926045	     10.99091347	    -19.56622782	     -7.43793058	    -20.86414367	     -8.15574652	     -1.17582710	    -10.30531969	      0.00000000	      0.00000000	      0.00000000	      0.00000000	      0.00000000	      0.00000000	      5.55327546	     -7.03758312	      6.98720947	     -6.15935422
      0.68333333	     -2.07013235	     -5.90509813	      7.57576086	      0.04232200	      0.97436429	      0.29725534	     30.60112329	      6.31202985	     -5.82120071	    -18.71797264	      9.14770639	    -20.26040527	     -2.27307561	    -21.06908381	     -8.45998956	     -1.69252934	    -10.94240980	      0.00000000	      0.00000000	      0.00000000	      0.00000000	      0.00000000	      0.00000000	      5.23841390	     -7.02240202	      7.45590382	     -5.93774180
      0.68750000	     -1.97857478	     -6.15028655	      7.48002576	      0.04906374	      0.97398832	      0.29787789	     30.70497039	      6.66476710	     -5.76258026	    -19.62713724	      8.83352774	    -20.24821827	     -2.29877718	    -21.10192077	     -8.74392658	     -1.86487904	    -11.73823426	      0.00000000	      0.00000000	      0.00000000	      0.00000000	      0.00000000	      0.00000000	      4.87366880	     -7.03355848	      7.80585144	     -5.90143823
      0.69166667	     -1.89443553	     -6.43372643	      7.33698348	      0.05590829	      0.97364394	      0.29853618	     30.80274322	      7.06871680	     -5.73042190	    -20.51867478	      8.53212959	    -20.25458645	     -2.30810254	    -21.11855691	     -9.04834197	     -2.10242622	    -12.57590815	      0.00000000	      0.00000000	      0.00000000	      0.00000000	      0.00000000	      0.00000000	      4.49547865	     -7.02593009	      8.19009709	     -5.82822590
      0.69583333	     -1.79757139	     -6.64748796	      7.30359115	      0.06251363	      0.97347640	      0.29919757	     30.79316209	      7.39529906	     -5.57319299	    -21.24066852	      8.37213177	    -20.21890855	     -2.30655413	    -21.03898687	     -9.33126995	     -2.11496054	    -13.53472491	      0.00000000	      0.00000000	      0.00000000	      0.00000000	      0.00000000	      0.00000000	      4.06449361	     -7.06377187	      8.47006082	     -5.78460029
      0.70000000	     -1.73255956	     -7.04853407	      6.99725865	      0.06967912	      0.97308603	      0.29996731	     30.91246125	      7.94581860	     -5.70737816	    -22.15517446	      8.00093520	    -20.26315349	     -2.30620975	    -21.07600928	     -9.69121139	     -2.61658607	    -14.38882472	      0.00000000	      0.00000000	      0.00000000	      0.00000000	      0.00000000	      0.00000000	      3.68753297	     -7.00126949	      9.00847347	     -5.62288548
      0.70416667	     -1.64644109	     -7.38314385	      6.86710367	      0.07652385	      0.97294523	      0.30067596	     30.87350434	      8.42257181	     -5.58312932	    -22.80328938	      7.77192550	    -20.27883925	     -2.25693181	    -20.99396120	    -10.06858433	     -2.86035285	    -15.37705417	      0.00000000	      0.00000000	      0.00000000	      0.00000000	      0.00000000	      0.00000000	      3.25053359	     -6.98314997	      9.41786651	     -5.42177999
      0.70833333	     -1.54623781	     -7.59610586	      6.76944631	      0.08314812	      0.97290587	      0.30139919	     30.80691366	      8.76266503	     -5.50630679	    -23.45567120	      7.64810439	    -20.26904775	     -2.24400832	    -20.85407174	    -10.33056760	     -2.92875867	    -16.45335261	      0.00000000	      0.00000000	      0.00000000	      0.00000000	      0.00000000	      0.00000000	      2.80144794	     -7.03442561	      9.69338079	     -5.36456089
      0.71250000	     -1.44131208	     -7.82262511	      6.67237454	      0.08980292	      0.97288908	      0.30211827	     30.73000712	      9.11062066	     -5.44798647	    -24.11195451	      7.53253587	    -20.24940200	     -2.23253811	    -20.69753575	    -10.61270804	     -3.03344733	    -17.56517181	      0.00000000	      0.00000000	      0.00000000	      0.00000000	      0.00000000	      0.00000000	      2.34365696	     -7.07079823	      9.97539255	     -5.30641936
      0.71666667	     -1.34622781	     -8.06471004	      6.53480349	      0.09650718	      0.97290943	      0.30288788	     30.64400013	      9.48893199	     -5.44700051	    -24.74272862	      7.42630412	    -20.23145097	     -2.21865578	    -20.51788575	    -10.89600385	     -3.19250487	    -18.69992333	      0.00000000	      0.00000000	      0.00000000	      0.00000000	      0.00000000	      0.00000000	      1.90116070	     -7.10435364	     10.28378697	     -5.23581750
